<svg width="662" height="99" viewBox="0 0 662 99" fill="none" xmlns="http://www.w3.org/2000/svg">
<g filter="url(#filter0_i_7_3)">
<path d="M91.392 89.896C91.392 93.762 88.258 96.896 84.392 96.896H72.664C68.798 96.896 65.664 93.762 65.664 89.896V66.5606C65.664 59.8473 57.1292 56.9839 53.0804 62.3389L46.4004 71.1736C46.0374 71.6538 45.4702 71.936 44.8682 71.936V71.936C44.2615 71.936 43.6904 71.6493 43.3279 71.1628L37.0612 62.7522C33.0352 57.3489 24.448 60.1963 24.448 66.9346V89.896C24.448 93.762 21.314 96.896 17.448 96.896H7C3.13401 96.896 0 93.762 0 89.896V18.52C0 14.654 3.13401 11.52 7 11.52H22.306C24.6087 11.52 26.7642 12.6525 28.0706 14.5489L40.1326 32.0583C42.8945 36.0675 48.8042 36.1028 51.6138 32.1269L64.0841 14.4802C65.396 12.6238 67.5276 11.52 69.8008 11.52H84.392C88.258 11.52 91.392 14.654 91.392 18.52V89.896Z" fill="url(#paint0_linear_7_3)"/>
<path d="M137.824 98.816C115.04 98.816 103.648 87.168 103.648 63.872C103.648 51.6693 106.379 42.8373 111.84 37.376C117.387 31.8293 126.091 29.056 137.952 29.056C149.643 29.056 158.347 31.8293 164.064 37.376C169.781 42.9227 172.64 51.7547 172.64 63.872C172.64 75.392 169.653 84.096 163.68 89.984C157.792 95.872 149.173 98.816 137.824 98.816ZM137.824 80.64C141.664 80.64 144.565 79.1893 146.528 76.288C148.491 73.3867 149.472 69.248 149.472 63.872C149.472 57.6427 148.533 53.2907 146.656 50.816C144.779 48.3413 141.835 47.104 137.824 47.104C133.643 47.104 130.699 48.3413 128.992 50.816C127.371 53.2053 126.56 57.5573 126.56 63.872C126.56 69.6747 127.456 73.9413 129.248 76.672C131.04 79.3173 133.899 80.64 137.824 80.64Z" fill="url(#paint1_linear_7_3)"/>
<path d="M227.084 92.5657C226.002 95.1863 223.447 96.896 220.613 96.896H206.677C203.846 96.896 201.294 95.1913 200.21 92.5766L179.006 41.4246C177.095 36.8153 180.483 31.744 185.472 31.744H195.493C198.408 31.744 201.017 33.5496 202.044 36.2768L208.044 52.2069C210.388 58.4302 219.274 58.1854 221.271 51.8424L226.059 36.6413C226.977 33.7264 229.679 31.744 232.735 31.744H241.717C246.701 31.744 250.089 36.8059 248.188 41.4137L227.084 92.5657Z" fill="url(#paint2_linear_7_3)"/>
<path d="M279.293 0C283.159 0 286.293 3.13401 286.293 7V15.144C286.293 19.01 283.159 22.144 279.293 22.144H269.485C265.619 22.144 262.485 19.01 262.485 15.144V7.00001C262.485 3.13401 265.619 0 269.485 0H279.293ZM279.179 33.024C283.04 33.024 286.171 36.1495 286.179 40.01L286.279 89.882C286.287 93.7534 283.15 96.896 279.279 96.896H269.869C266.003 96.896 262.869 93.762 262.869 89.896V40.024C262.869 36.158 266.003 33.024 269.869 33.024H279.179Z" fill="url(#paint3_linear_7_3)"/>
<path d="M332.586 98.816C326.101 98.816 320.213 97.536 314.922 94.976C309.717 92.416 305.578 88.6613 302.506 83.712C299.434 78.6773 297.898 72.6613 297.898 65.664C297.898 54.144 300.842 45.184 306.73 38.784C312.703 32.2987 321.109 29.056 331.946 29.056C342.357 29.056 350.122 32.4693 355.242 39.296C359.484 44.8818 361.94 53.0163 362.608 63.6992C362.849 67.5413 359.686 70.656 355.836 70.656H328.328C324.613 70.656 321.174 73.931 323.375 76.9241C323.675 77.3317 324.015 77.717 324.394 78.08C326.442 79.9573 329.173 80.896 332.586 80.896C336.794 80.896 341.426 80.1759 346.482 78.7358C350.178 77.683 354.185 79.4323 355.574 83.0152L357.017 86.7382C358.382 90.2602 356.712 94.2604 353.104 95.3781C350.924 96.0532 348.65 96.6445 346.282 97.152C341.589 98.2613 337.023 98.816 332.586 98.816ZM333.136 59.392C336.902 59.392 340.293 56.3196 339.243 52.704C338.857 51.3751 338.302 50.2765 337.578 49.408C335.957 47.36 333.695 46.336 330.794 46.336C328.149 46.336 325.845 47.5307 323.882 49.92C323.135 50.7973 322.548 51.7982 322.123 52.9229C320.815 56.3767 324.197 59.392 327.889 59.392H333.136Z" fill="url(#paint4_linear_7_3)"/>
<path d="M444.892 41.9564C442.928 46.312 443.764 54.4529 446.677 58.24V58.24C449.237 61.568 450.517 65.5787 450.517 70.272C450.517 75.904 449.109 80.7253 446.293 84.736C443.562 88.7467 439.765 91.776 434.901 93.824C430.122 95.872 424.704 96.896 418.645 96.896H382.125C378.259 96.896 375.125 93.762 375.125 89.896V18.52C375.125 14.654 378.259 11.52 382.125 11.52H414.805C424.874 11.52 432.682 13.3973 438.229 17.152C443.776 20.8213 446.549 26.3253 446.549 33.664C446.549 36.7428 445.997 39.5069 444.892 41.9564ZM414.421 45.568C415.189 45.568 416.128 45.2267 417.237 44.544C418.432 43.776 419.413 42.752 420.181 41.472C421.034 40.192 421.461 38.7413 421.461 37.12C421.461 35.2427 420.565 33.536 418.773 32C417.066 30.3787 415.189 29.568 413.141 29.568H407.853C403.987 29.568 400.853 32.702 400.853 36.568V38.568C400.853 42.434 403.987 45.568 407.853 45.568H414.421ZM415.189 78.976C417.408 79.0613 419.413 78.2507 421.205 76.544C423.082 74.752 424.021 72.3627 424.021 69.376C424.021 66.6453 423.082 64.512 421.205 62.976C419.413 61.3547 417.28 60.544 414.805 60.544H407.853C403.987 60.544 400.853 63.678 400.853 67.544V71.976C400.853 75.842 403.987 78.976 407.853 78.976H415.189Z" fill="url(#paint5_linear_7_3)"/>
<path d="M490.508 29.056C499.383 29.312 506.807 31.2747 512.78 34.944C518.753 38.528 521.74 44.5867 521.74 53.12L521.509 88.8219C521.493 91.2193 520.237 93.4425 517.973 94.2307C515.633 95.0453 512.452 95.8911 508.428 96.768C501.857 98.1333 496.055 98.816 491.02 98.816C480.012 98.816 471.905 96.9387 466.7 93.184C461.58 89.4293 459.02 83.7547 459.02 76.16C459.02 70.016 461.324 65.3227 465.932 62.08C470.625 58.752 477.367 57.088 486.156 57.088C487.965 57.088 490.095 57.284 492.548 57.676C495.649 58.1716 498.572 55.8762 498.572 52.736V52.736C498.572 50.688 497.804 49.2373 496.268 48.384C494.817 47.4453 493.068 46.976 491.02 46.976C487.218 46.976 482.858 47.6998 477.939 49.1473C474.177 50.2544 470.085 48.4262 468.751 44.7383L467.38 40.9455C466.131 37.4919 467.756 33.6251 471.246 32.4798C473.285 31.8106 475.396 31.2239 477.58 30.72C482.103 29.6107 486.412 29.056 490.508 29.056ZM498.572 73.6002C498.572 71.6891 497.341 70.0155 495.5 69.504V69.504C494.049 69.0773 492.257 68.864 490.124 68.864C487.479 68.864 485.473 69.504 484.108 70.784C482.828 72.064 482.188 73.728 482.188 75.776C482.188 77.824 482.999 79.4453 484.62 80.64C486.327 81.7493 488.46 82.304 491.02 82.304C492.021 82.304 492.984 82.2501 493.909 82.1423C496.786 81.8072 498.572 79.1128 498.572 76.2164V73.6002Z" fill="url(#paint6_linear_7_3)"/>
<path d="M568.342 57.344C574.315 58.4533 579.307 60.6293 583.318 63.872C587.329 67.1147 589.334 71.5947 589.334 77.312C589.334 84.5653 586.347 89.984 580.374 93.568C574.401 97.0667 566.635 98.816 557.078 98.816C553.153 98.816 549.057 98.304 544.79 97.28C542.81 96.8355 540.916 96.3145 539.108 95.7169C535.768 94.6127 534.213 90.936 535.301 87.5904L536.225 84.7518C537.516 80.7835 541.963 78.8833 545.975 80.0325C549.772 81.1202 553.473 81.664 557.078 81.664C559.553 81.664 561.302 81.3653 562.326 80.768C563.35 80.1707 563.862 79.1893 563.862 77.824C563.862 76.3733 563.094 75.3493 561.558 74.752C560.022 74.0693 557.718 73.4293 554.646 72.832C552.598 72.4907 551.105 72.192 550.166 71.936C545.899 70.8267 542.358 68.48 539.542 64.896C536.726 61.312 535.318 57.3013 535.318 52.864C535.318 45.696 537.921 40.192 543.126 36.352C548.331 32.4267 555.329 30.464 564.118 30.464C568.043 30.464 572.097 30.976 576.278 32C578.259 32.4358 580.157 32.936 581.973 33.5006C585.414 34.571 587.069 38.3248 585.945 41.7495L585.047 44.485C583.726 48.5125 579.147 50.4255 575.083 49.2212C574.549 49.0629 574.008 48.9118 573.462 48.768C570.305 47.9147 567.19 47.488 564.118 47.488C562.667 47.488 561.515 47.872 560.662 48.64C559.894 49.408 559.51 50.4747 559.51 51.84C559.51 53.4613 560.065 54.6133 561.174 55.296C562.283 55.9787 564.673 56.6613 568.342 57.344Z" fill="url(#paint7_linear_7_3)"/>
<path d="M631.211 98.816C624.726 98.816 618.838 97.536 613.547 94.976C608.342 92.416 604.203 88.6613 601.131 83.712C598.059 78.6773 596.523 72.6613 596.523 65.664C596.523 54.144 599.467 45.184 605.355 38.784C611.328 32.2987 619.734 29.056 630.571 29.056C640.982 29.056 648.747 32.4693 653.867 39.296C658.109 44.8818 660.565 53.0163 661.233 63.6992C661.474 67.5413 658.311 70.656 654.461 70.656H626.953C623.238 70.656 619.799 73.931 622 76.9241C622.3 77.3317 622.64 77.717 623.019 78.08C625.067 79.9573 627.798 80.896 631.211 80.896C635.419 80.896 640.051 80.1759 645.107 78.7358C648.803 77.683 652.81 79.4323 654.199 83.0152L655.642 86.7382C657.007 90.2602 655.337 94.2604 651.729 95.3781C649.549 96.0532 647.275 96.6445 644.907 97.152C640.214 98.2613 635.648 98.816 631.211 98.816ZM631.761 59.392C635.527 59.392 638.918 56.3196 637.868 52.704C637.482 51.3751 636.927 50.2765 636.203 49.408C634.582 47.36 632.32 46.336 629.419 46.336C626.774 46.336 624.47 47.5307 622.507 49.92C621.76 50.7973 621.173 51.7982 620.748 52.9229C619.44 56.3767 622.822 59.392 626.514 59.392H631.761Z" fill="url(#paint8_linear_7_3)"/>
</g>
<defs>
<filter id="filter0_i_7_3" x="0" y="0" width="661.246" height="102.816" filterUnits="userSpaceOnUse" color-interpolation-filters="sRGB">
<feFlood flood-opacity="0" result="BackgroundImageFix"/>
<feBlend mode="normal" in="SourceGraphic" in2="BackgroundImageFix" result="shape"/>
<feColorMatrix in="SourceAlpha" type="matrix" values="0 0 0 0 0 0 0 0 0 0 0 0 0 0 0 0 0 0 127 0" result="hardAlpha"/>
<feOffset dy="4"/>
<feGaussianBlur stdDeviation="2"/>
<feComposite in2="hardAlpha" operator="arithmetic" k2="-1" k3="1"/>
<feColorMatrix type="matrix" values="0 0 0 0 0 0 0 0 0 0 0 0 0 0 0 0 0 0 0.25 0"/>
<feBlend mode="normal" in2="shape" result="effect1_innerShadow_7_3"/>
</filter>
<linearGradient id="paint0_linear_7_3" x1="6.18" y1="18.8959" x2="675.18" y2="82.3959" gradientUnits="userSpaceOnUse">
<stop stop-color="#4C0E52"/>
<stop offset="1" stop-color="#64230A"/>
</linearGradient>
<linearGradient id="paint1_linear_7_3" x1="6.18" y1="18.8959" x2="675.18" y2="82.3959" gradientUnits="userSpaceOnUse">
<stop stop-color="#4C0E52"/>
<stop offset="1" stop-color="#64230A"/>
</linearGradient>
<linearGradient id="paint2_linear_7_3" x1="6.18" y1="18.8959" x2="675.18" y2="82.3959" gradientUnits="userSpaceOnUse">
<stop stop-color="#4C0E52"/>
<stop offset="1" stop-color="#64230A"/>
</linearGradient>
<linearGradient id="paint3_linear_7_3" x1="6.18" y1="18.8959" x2="675.18" y2="82.3959" gradientUnits="userSpaceOnUse">
<stop stop-color="#4C0E52"/>
<stop offset="1" stop-color="#64230A"/>
</linearGradient>
<linearGradient id="paint4_linear_7_3" x1="6.18" y1="18.8959" x2="675.18" y2="82.3959" gradientUnits="userSpaceOnUse">
<stop stop-color="#4C0E52"/>
<stop offset="1" stop-color="#64230A"/>
</linearGradient>
<linearGradient id="paint5_linear_7_3" x1="6.18" y1="18.8959" x2="675.18" y2="82.3959" gradientUnits="userSpaceOnUse">
<stop stop-color="#4C0E52"/>
<stop offset="1" stop-color="#64230A"/>
</linearGradient>
<linearGradient id="paint6_linear_7_3" x1="6.18" y1="18.8959" x2="675.18" y2="82.3959" gradientUnits="userSpaceOnUse">
<stop stop-color="#4C0E52"/>
<stop offset="1" stop-color="#64230A"/>
</linearGradient>
<linearGradient id="paint7_linear_7_3" x1="6.18" y1="18.8959" x2="675.18" y2="82.3959" gradientUnits="userSpaceOnUse">
<stop stop-color="#4C0E52"/>
<stop offset="1" stop-color="#64230A"/>
</linearGradient>
<linearGradient id="paint8_linear_7_3" x1="6.18" y1="18.8959" x2="675.18" y2="82.3959" gradientUnits="userSpaceOnUse">
<stop stop-color="#4C0E52"/>
<stop offset="1" stop-color="#64230A"/>
</linearGradient>
</defs>
</svg>
