<svg width="662" height="99" viewBox="0 0 662 99" fill="none" xmlns="http://www.w3.org/2000/svg">
<g filter="url(#filter0_i_10_4)">
<path d="M45.3011 45.1035C62.9645 49.5353 71.7962 57.7597 71.7962 69.7766C71.7962 75.4867 70.3088 80.5577 67.3339 84.9895C64.452 89.336 60.0826 92.7451 54.2258 95.2167C48.369 97.6882 41.2571 98.924 32.8902 98.924C27.4983 98.924 21.9203 98.3274 16.1565 97.1342C14.1018 96.7328 12.102 96.281 10.1572 95.7789C4.71583 94.374 2.20287 88.3299 4.36415 83.1423V83.1423C6.42343 78.1996 12.0163 75.7772 17.1806 77.192C23.0898 78.8108 28.3264 79.6202 32.8902 79.6202C36.0511 79.6202 38.5147 79.1089 40.281 78.0862C42.1403 76.9782 43.0699 75.2737 43.0699 72.9726C43.0699 71.1828 41.9079 69.7766 39.5838 68.7539C37.2596 67.6459 33.8664 66.538 29.4041 65.43L26.7545 64.663C21.8274 63.2994 17.458 61.7227 13.6464 59.9329C9.92783 58.0579 6.72053 55.4159 4.02454 52.0069C1.42151 48.5978 0.119995 44.2087 0.119995 38.8394C0.119995 30.0611 3.3273 22.9873 9.7419 17.618C16.1565 12.1635 25.453 9.4363 37.6315 9.4363C43.0235 9.4363 48.5549 10.0329 54.2258 11.226C56.3469 11.6338 58.4051 12.0934 60.4003 12.6051C65.8098 13.9921 68.312 19.9563 66.1256 25.0949V25.0949C64.0669 29.9332 58.5963 32.2371 53.5045 30.9257C47.8467 29.4686 42.5557 28.7401 37.6315 28.7401C34.9355 28.7401 32.7508 29.294 31.0774 30.402C29.497 31.5099 28.7068 33.2571 28.7068 35.6434C28.7068 37.5184 29.3576 39.0099 30.6591 40.1178C32.0536 41.1405 33.6805 41.9502 35.5398 42.5467C37.3991 43.1433 40.6529 43.9956 45.3011 45.1035Z" fill="url(#paint0_linear_10_4)"/>
<path d="M118.499 98.7962C111.434 98.7962 105.019 97.5178 99.2555 94.961C93.5846 92.4042 89.0758 88.6542 85.729 83.7111C82.3823 78.6827 80.7089 72.6743 80.7089 65.6857C80.7089 54.1802 83.9162 45.2314 90.3308 38.8394C96.8384 32.3622 105.995 29.1236 117.802 29.1236C129.144 29.1236 137.604 32.5326 143.182 39.3508C147.365 44.3999 149.953 51.5339 150.947 60.753C151.536 66.2185 146.972 70.6715 141.474 70.6715H114.926C110.274 70.6715 106.077 75.0194 109.575 78.0862V78.0862C111.806 79.9611 114.781 80.8986 118.499 80.8986C122.806 80.8986 127.52 80.264 132.642 78.9947C137.3 77.8401 142.263 79.987 144.132 84.4076V84.4076C146.132 89.1373 143.832 94.6181 138.86 95.9024C137.101 96.3568 135.287 96.7675 133.42 97.1342C128.307 98.2422 123.333 98.7962 118.499 98.7962ZM116.844 59.4216C122.209 59.4216 127.598 54.572 124.519 50.178C124.338 49.9196 124.144 49.677 123.938 49.4501C122.171 47.4046 119.708 46.3819 116.547 46.3819C113.665 46.3819 111.155 47.5751 109.017 49.9614C108.828 50.1646 108.649 50.3744 108.479 50.5908C105.235 54.7227 110.303 59.4216 115.556 59.4216H116.844Z" fill="url(#paint1_linear_10_4)"/>
<path d="M164.146 43.2238C164.146 39.3729 166.338 35.8022 169.978 34.5441C172.777 33.5766 175.807 32.7498 179.067 32.0639C184.83 30.8707 190.687 30.2741 196.637 30.2741C199.855 30.2741 202.971 30.4513 205.985 30.8056C211.503 31.4541 214.654 37.063 213.15 42.4114L212.675 44.1009C211.258 49.137 206.203 52.1005 200.984 51.7429C199.821 51.6632 198.697 51.6234 197.613 51.6234V51.6234C193.008 51.6234 189.525 55.6374 189.525 60.242V86.8786C189.525 92.4014 185.048 96.8786 179.525 96.8786H174.146C168.623 96.8786 164.146 92.4014 164.146 86.8786V43.2238Z" fill="url(#paint2_linear_10_4)"/>
<path d="M242.862 0.104004C248.385 0.104004 252.862 4.58116 252.862 10.104V12.2203C252.862 17.7431 248.385 22.2202 242.862 22.2202H236.924C231.402 22.2202 226.924 17.7431 226.924 12.2202V10.104C226.924 4.58115 231.402 0.104004 236.924 0.104004H242.862ZM242.744 33.0866C248.258 33.0866 252.732 37.5505 252.744 43.0648L252.84 86.8567C252.852 92.3881 248.371 96.8786 242.84 96.8786H237.343C231.82 96.8786 227.343 92.4014 227.343 86.8786V43.0866C227.343 37.5638 231.82 33.0866 237.343 33.0866H242.744Z" fill="url(#paint3_linear_10_4)"/>
<path d="M303.295 98.7962C296.23 98.7962 289.815 97.5178 284.051 94.961C278.38 92.4042 273.871 88.6542 270.525 83.7111C267.178 78.6827 265.505 72.6743 265.505 65.6857C265.505 54.1802 268.712 45.2314 275.126 38.8394C281.634 32.3622 290.791 29.1236 302.598 29.1236C313.939 29.1236 322.399 32.5326 327.977 39.3508C332.16 44.3999 334.749 51.5339 335.742 60.753C336.332 66.2185 331.767 70.6715 326.27 70.6715H299.721C295.07 70.6715 290.873 75.0194 294.37 78.0862V78.0862C296.601 79.9611 299.576 80.8986 303.295 80.8986C307.602 80.8986 312.316 80.264 317.438 78.9947C322.096 77.8401 327.059 79.987 328.928 84.4076V84.4076C330.928 89.1373 328.628 94.6181 323.656 95.9024C321.896 96.3568 320.083 96.7675 318.216 97.1342C313.103 98.2422 308.129 98.7962 303.295 98.7962ZM301.639 59.4216C307.005 59.4216 312.394 54.572 309.314 50.178C309.133 49.9196 308.94 49.677 308.733 49.4501C306.967 47.4046 304.504 46.3819 301.343 46.3819C298.461 46.3819 295.951 47.5751 293.813 49.9614C293.624 50.1646 293.444 50.3744 293.274 50.5908C290.03 54.7227 295.098 59.4216 300.352 59.4216H301.639Z" fill="url(#paint4_linear_10_4)"/>
<path d="M425.748 41.7965C423.688 46.1384 424.501 54.5898 427.59 58.271V58.271C430.379 61.5948 431.773 65.6005 431.773 70.2879C431.773 75.9129 430.239 80.7282 427.172 84.7338C424.197 88.7394 420.06 91.765 414.761 93.8104C409.555 95.8559 403.651 96.8786 397.051 96.8786H359.639C354.116 96.8786 349.639 92.4014 349.639 86.8786V21.6096C349.639 16.0867 354.116 11.6096 359.639 11.6096H392.867C403.837 11.6096 412.344 13.4845 418.386 17.2345C424.429 20.8992 427.45 26.3963 427.45 33.7258C427.45 36.7125 426.883 39.4028 425.748 41.7965ZM392.449 45.6149C393.286 45.6149 394.308 45.274 395.517 44.5922C396.818 43.8251 397.887 42.8024 398.724 41.524C399.654 40.2456 400.119 38.7968 400.119 37.1775C400.119 35.3025 399.143 33.598 397.19 32.0639C395.331 30.4446 393.286 29.6349 391.055 29.6349H385.658C381.245 29.6349 377.668 33.2122 377.668 37.6249V37.6249C377.668 42.0377 381.245 45.6149 385.658 45.6149H392.449ZM393.286 78.981C395.703 79.0663 397.887 78.2566 399.84 76.5521C401.885 74.7623 402.908 72.376 402.908 69.3931C402.908 66.6658 401.885 64.5352 399.84 63.0011C397.887 61.3818 395.563 60.5721 392.867 60.5721H386.872C381.789 60.5721 377.668 64.6931 377.668 69.7766V69.7766C377.668 74.8601 381.789 78.981 386.872 78.981H393.286Z" fill="url(#paint5_linear_10_4)"/>
<path d="M475.341 29.1236C485.009 29.3793 493.097 31.3395 499.605 35.0042C506.112 38.5837 509.366 44.6348 509.366 53.1574L509.128 86.9116C509.103 90.4707 507.143 93.7051 503.721 94.6808C501.372 95.3503 498.42 96.0403 494.864 96.7507C487.705 98.1144 481.384 98.7962 475.899 98.7962C463.906 98.7962 455.075 96.9212 449.404 93.1712C443.826 89.4213 441.037 83.7537 441.037 76.1686C441.037 70.0323 443.547 65.3448 448.567 62.1062C453.68 58.7824 461.024 57.1205 470.6 57.1205C472.699 57.1205 475.197 57.3427 478.094 57.7873C481.216 58.2665 484.126 55.9325 484.126 52.7739V52.7739C484.126 50.7285 483.29 49.2796 481.616 48.4274C480.036 47.4899 478.13 47.0211 475.899 47.0211C472.033 47.0211 467.638 47.6506 462.714 48.9096C457.945 50.1287 452.855 47.8703 451.049 43.2914V43.2914C449.21 38.6287 451.462 33.3098 456.296 31.9858C457.91 31.5439 459.563 31.1438 461.257 30.7855C466.184 29.6776 470.879 29.1236 475.341 29.1236ZM484.126 73.8803C484.126 71.8218 482.774 70.0289 480.779 69.5209V69.5209C479.199 69.0948 477.247 68.8817 474.923 68.8817C472.041 68.8817 469.856 69.5209 468.369 70.7993C466.974 72.0777 466.277 73.7396 466.277 75.785C466.277 77.8305 467.16 79.4498 468.926 80.6429C470.786 81.7509 473.11 82.3049 475.899 82.3049C476.998 82.3049 478.056 82.2501 479.072 82.1406C482.163 81.8075 484.126 78.9477 484.126 75.8396V73.8803Z" fill="url(#paint6_linear_10_4)"/>
<path d="M560.136 57.3761C566.644 58.4841 572.082 60.6574 576.452 63.896C580.821 67.1346 583.006 71.6089 583.006 77.3191C583.006 84.5634 579.752 89.9752 573.244 93.5547C566.737 97.049 558.277 98.7962 547.865 98.7962C543.588 98.7962 539.126 98.2848 534.478 97.2621C532.805 96.9178 531.188 96.5275 529.628 96.0912C525.276 94.8743 523.239 90.1241 524.751 85.8657V85.8657C526.4 81.2204 531.596 78.9955 536.378 80.1925C540.301 81.1746 544.13 81.6657 547.865 81.6657C550.561 81.6657 552.467 81.3674 553.582 80.7708C554.698 80.1742 555.256 79.1941 555.256 77.8305C555.256 76.3816 554.419 75.3589 552.745 74.7623C551.072 74.0805 548.562 73.4413 545.215 72.8447C542.984 72.5038 541.357 72.2055 540.335 71.9499C535.686 70.8419 531.828 68.4982 528.76 64.9187C525.693 61.3392 524.159 57.3335 524.159 52.9018C524.159 45.7427 526.994 40.2456 532.665 36.4104C538.336 32.49 545.959 30.5298 555.534 30.5298C559.811 30.5298 564.227 31.0412 568.782 32.0639C570.474 32.4052 572.111 32.786 573.692 33.2063C578.116 34.3823 580.252 39.1788 578.709 43.4889V43.4889C577.039 48.156 571.746 50.38 566.951 49.1222C566.542 49.0149 566.13 48.9111 565.714 48.8109C562.274 47.9586 558.881 47.5325 555.534 47.5325C553.954 47.5325 552.699 47.916 551.769 48.6831C550.933 49.4501 550.514 50.5154 550.514 51.879C550.514 53.4983 551.119 54.6489 552.327 55.3307C553.536 56.0125 556.139 56.6943 560.136 57.3761Z" fill="url(#paint7_linear_10_4)"/>
<path d="M628.628 98.7962C621.563 98.7962 615.148 97.5178 609.384 94.961C603.713 92.4042 599.204 88.6542 595.858 83.7111C592.511 78.6827 590.838 72.6743 590.838 65.6857C590.838 54.1802 594.045 45.2314 600.46 38.8394C606.967 32.3622 616.124 29.1236 627.931 29.1236C639.273 29.1236 647.732 32.5326 653.31 39.3508C657.493 44.3999 660.082 51.5339 661.075 60.753C661.665 66.2185 657.1 70.6715 651.603 70.6715H625.054C620.403 70.6715 616.206 75.0194 619.703 78.0862V78.0862C621.934 79.9611 624.909 80.8986 628.628 80.8986C632.935 80.8986 637.649 80.264 642.771 78.9947C647.429 77.8401 652.392 79.987 654.261 84.4076V84.4076C656.261 89.1373 653.961 94.6181 648.989 95.9024C647.229 96.3568 645.416 96.7675 643.549 97.1342C638.436 98.2422 633.462 98.7962 628.628 98.7962ZM626.972 59.4216C632.338 59.4216 637.727 54.572 634.647 50.178C634.466 49.9196 634.273 49.677 634.066 49.4501C632.3 47.4046 629.837 46.3819 626.676 46.3819C623.794 46.3819 621.284 47.5751 619.146 49.9614C618.957 50.1646 618.777 50.3744 618.608 50.5908C615.363 54.7227 620.431 59.4216 625.685 59.4216H626.972Z" fill="url(#paint8_linear_10_4)"/>
</g>
<defs>
<filter id="filter0_i_10_4" x="0.119995" y="0.104004" width="661.007" height="102.82" filterUnits="userSpaceOnUse" color-interpolation-filters="sRGB">
<feFlood flood-opacity="0" result="BackgroundImageFix"/>
<feBlend mode="normal" in="SourceGraphic" in2="BackgroundImageFix" result="shape"/>
<feColorMatrix in="SourceAlpha" type="matrix" values="0 0 0 0 0 0 0 0 0 0 0 0 0 0 0 0 0 0 127 0" result="hardAlpha"/>
<feOffset dy="4"/>
<feGaussianBlur stdDeviation="2"/>
<feComposite in2="hardAlpha" operator="arithmetic" k2="-1" k3="1"/>
<feColorMatrix type="matrix" values="0 0 0 0 0 0 0 0 0 0 0 0 0 0 0 0 0 0 0.25 0"/>
<feBlend mode="normal" in2="shape" result="effect1_innerShadow_10_4"/>
</filter>
<linearGradient id="paint0_linear_10_4" x1="-5.45792" y1="36.9538" x2="686.002" y2="74.9631" gradientUnits="userSpaceOnUse">
<stop stop-color="#00DC82"/>
<stop offset="1" stop-color="#80EEC0"/>
</linearGradient>
<linearGradient id="paint1_linear_10_4" x1="-5.45792" y1="36.9538" x2="686.002" y2="74.9631" gradientUnits="userSpaceOnUse">
<stop stop-color="#00DC82"/>
<stop offset="1" stop-color="#80EEC0"/>
</linearGradient>
<linearGradient id="paint2_linear_10_4" x1="-5.45792" y1="36.9538" x2="686.002" y2="74.9631" gradientUnits="userSpaceOnUse">
<stop stop-color="#00DC82"/>
<stop offset="1" stop-color="#80EEC0"/>
</linearGradient>
<linearGradient id="paint3_linear_10_4" x1="-5.45792" y1="36.9538" x2="686.002" y2="74.9631" gradientUnits="userSpaceOnUse">
<stop stop-color="#00DC82"/>
<stop offset="1" stop-color="#80EEC0"/>
</linearGradient>
<linearGradient id="paint4_linear_10_4" x1="-5.45792" y1="36.9538" x2="686.002" y2="74.9631" gradientUnits="userSpaceOnUse">
<stop stop-color="#00DC82"/>
<stop offset="1" stop-color="#80EEC0"/>
</linearGradient>
<linearGradient id="paint5_linear_10_4" x1="-5.45792" y1="36.9538" x2="686.002" y2="74.9631" gradientUnits="userSpaceOnUse">
<stop stop-color="#00DC82"/>
<stop offset="1" stop-color="#80EEC0"/>
</linearGradient>
<linearGradient id="paint6_linear_10_4" x1="-5.45792" y1="36.9538" x2="686.002" y2="74.9631" gradientUnits="userSpaceOnUse">
<stop stop-color="#00DC82"/>
<stop offset="1" stop-color="#80EEC0"/>
</linearGradient>
<linearGradient id="paint7_linear_10_4" x1="-5.45792" y1="36.9538" x2="686.002" y2="74.9631" gradientUnits="userSpaceOnUse">
<stop stop-color="#00DC82"/>
<stop offset="1" stop-color="#80EEC0"/>
</linearGradient>
<linearGradient id="paint8_linear_10_4" x1="-5.45792" y1="36.9538" x2="686.002" y2="74.9631" gradientUnits="userSpaceOnUse">
<stop stop-color="#00DC82"/>
<stop offset="1" stop-color="#80EEC0"/>
</linearGradient>
</defs>
</svg>
